<svg xmlns="http://www.w3.org/2000/svg" viewBox="0 0 1200 760" role="img" aria-labelledby="title desc">
<title id="title">Trendskartco.in</title><desc id="desc">Bold black and white home and shopping logo featuring a house and everyday products.</desc>
<defs><linearGradient id="silver" x1="0" y1="0" x2="1" y2="1"><stop offset="0" stop-color="#fff"/><stop offset=".5" stop-color="#bfc0c2"/><stop offset="1" stop-color="#fff"/></linearGradient></defs>
<g stroke="#111" stroke-width="9" stroke-linecap="round" stroke-linejoin="round">
<path d="M100 310h42l42 190h250l45-145H171" fill="none" stroke-width="13"/><circle cx="230" cy="530" r="19" fill="#111"/><circle cx="405" cy="530" r="19" fill="#111"/>
<path d="M195 338v-58q0-18 18-18h56q18 0 18 18v58M216 262v-24q0-28 25-28t25 28v24" fill="none"/><path d="M310 325v-68q0-20 20-20h48q20 0 20 20v68" fill="url(#silver)"/>
<path d="M405 360 600 190l195 170v170H405Z" fill="#fff" stroke-width="13"/><path d="M372 366 600 166l228 200" fill="none" stroke="#111" stroke-width="28"/><path d="M545 530V402q0-15 15-15h80q15 0 15 15v128" fill="url(#silver)" stroke-width="10"/><path d="M475 400h35v35h-35zM690 400h35v35h-35z" fill="#111" stroke-width="6"/>
<path d="M870 215h105l22 95H850Z" fill="url(#silver)"/><path d="M910 310v95h28v-95M890 405h70" fill="none"/>
<rect x="1010" y="270" width="72" height="135" rx="13" fill="url(#silver)" stroke-width="8"/><path d="M1030 286h32" stroke-width="5"/>
<path d="M890 415q-5-60-35-80m35 80q10-70 52-95m-52 95q-30-38-68-32" fill="none" stroke-width="8"/><path d="M852 335q-37-40-58-8 20 34 58 8Zm44-18q10-48 47-44 2 37-47 44Zm-36 17q-38-22-58 7 28 23 58-7Z" fill="url(#silver)" stroke-width="6"/>
</g>
<path d="M65 565q240-68 480-10t590 0" fill="none" stroke="#111" stroke-width="15" stroke-linecap="round"/>
<text x="600" y="655" text-anchor="middle" font-family="Arial,Helvetica,sans-serif" font-size="91" font-weight="900" letter-spacing="-4" fill="#111">Trendskartco.in</text>
<path d="M205 690h175m440 0h175" stroke="#111" stroke-width="3"/><text x="600" y="700" text-anchor="middle" font-family="Arial,Helvetica,sans-serif" font-size="23" font-weight="700" letter-spacing="8" fill="#222">HOME DECOR  •  KITCHEN  •  GADGETS</text>
</svg>